<svg width="1440" height="920" viewBox="0 0 1440 920" fill="none" xmlns="http://www.w3.org/2000/svg">
  <rect width="1440" height="920" rx="44" fill="#10151A"/>
  <rect x="72" y="72" width="1296" height="776" rx="36" fill="url(#bg)"/>
  <rect x="128" y="128" width="494" height="664" rx="30" fill="rgba(255,255,255,0.07)" stroke="rgba(255,255,255,0.1)"/>
  <rect x="168" y="170" width="176" height="18" rx="9" fill="rgba(255,255,255,0.16)"/>
  <rect x="168" y="224" width="358" height="64" rx="20" fill="rgba(255,255,255,0.92)"/>
  <rect x="168" y="314" width="402" height="16" rx="8" fill="rgba(255,255,255,0.32)"/>
  <rect x="168" y="348" width="356" height="16" rx="8" fill="rgba(255,255,255,0.18)"/>
  <g>
    <rect x="168" y="424" width="414" height="88" rx="26" fill="rgba(255,255,255,0.07)" stroke="rgba(255,255,255,0.08)"/>
    <circle cx="220" cy="468" r="20" fill="#2AD1C1" fill-opacity="0.3"/>
    <rect x="254" y="454" width="138" height="14" rx="7" fill="rgba(255,255,255,0.7)"/>
    <rect x="254" y="478" width="120" height="12" rx="6" fill="rgba(255,255,255,0.24)"/>
  </g>
  <g>
    <rect x="168" y="536" width="414" height="88" rx="26" fill="rgba(255,255,255,0.07)" stroke="rgba(255,255,255,0.08)"/>
    <circle cx="220" cy="580" r="20" fill="#F8B84E" fill-opacity="0.3"/>
    <rect x="254" y="566" width="154" height="14" rx="7" fill="rgba(255,255,255,0.7)"/>
    <rect x="254" y="590" width="128" height="12" rx="6" fill="rgba(255,255,255,0.24)"/>
  </g>
  <g>
    <rect x="168" y="648" width="414" height="88" rx="26" fill="rgba(42,209,193,0.16)" stroke="rgba(42,209,193,0.22)"/>
    <circle cx="220" cy="692" r="20" fill="#2AD1C1" fill-opacity="0.42"/>
    <rect x="254" y="678" width="174" height="14" rx="7" fill="rgba(255,255,255,0.82)"/>
    <rect x="254" y="702" width="144" height="12" rx="6" fill="rgba(255,255,255,0.28)"/>
  </g>
  <rect x="680" y="128" width="620" height="664" rx="30" fill="rgba(255,255,255,0.08)" stroke="rgba(255,255,255,0.1)"/>
  <g>
    <circle cx="748" cy="214" r="26" fill="rgba(255,255,255,0.12)"/>
    <circle cx="748" cy="362" r="26" fill="rgba(255,255,255,0.12)"/>
    <circle cx="748" cy="510" r="26" fill="rgba(255,255,255,0.12)"/>
    <circle cx="748" cy="658" r="26" fill="rgba(255,255,255,0.12)"/>
    <path d="M748 240V336" stroke="rgba(255,255,255,0.22)" stroke-width="4" stroke-linecap="round"/>
    <path d="M748 388V484" stroke="rgba(255,255,255,0.22)" stroke-width="4" stroke-linecap="round"/>
    <path d="M748 536V632" stroke="rgba(255,255,255,0.22)" stroke-width="4" stroke-linecap="round"/>
  </g>
  <g>
    <rect x="810" y="174" width="432" height="80" rx="24" fill="rgba(255,255,255,0.08)" stroke="rgba(255,255,255,0.08)"/>
    <rect x="846" y="206" width="164" height="14" rx="7" fill="rgba(255,255,255,0.7)"/>
    <rect x="1038" y="190" width="146" height="46" rx="23" fill="#2AD1C1"/>
  </g>
  <g>
    <rect x="810" y="322" width="432" height="80" rx="24" fill="rgba(255,255,255,0.08)" stroke="rgba(255,255,255,0.08)"/>
    <rect x="846" y="354" width="188" height="14" rx="7" fill="rgba(255,255,255,0.7)"/>
    <rect x="1050" y="338" width="134" height="46" rx="23" fill="rgba(255,255,255,0.1)"/>
  </g>
  <g>
    <rect x="810" y="470" width="432" height="80" rx="24" fill="rgba(255,255,255,0.08)" stroke="rgba(255,255,255,0.08)"/>
    <rect x="846" y="502" width="152" height="14" rx="7" fill="rgba(255,255,255,0.7)"/>
    <circle cx="1164" cy="510" r="18" fill="#2AD1C1" fill-opacity="0.32"/>
  </g>
  <g>
    <rect x="810" y="618" width="432" height="80" rx="24" fill="rgba(42,209,193,0.16)" stroke="rgba(42,209,193,0.22)"/>
    <rect x="846" y="650" width="190" height="14" rx="7" fill="rgba(255,255,255,0.82)"/>
    <rect x="1092" y="634" width="92" height="46" rx="23" fill="#F8B84E"/>
  </g>
  <defs>
    <linearGradient id="bg" x1="72" y1="72" x2="1368" y2="848" gradientUnits="userSpaceOnUse">
      <stop stop-color="#173C39"/>
      <stop offset="0.5" stop-color="#10151A"/>
      <stop offset="1" stop-color="#2A231A"/>
    </linearGradient>
  </defs>
</svg>
