<svg width="1440" height="920" viewBox="0 0 1440 920" fill="none" xmlns="http://www.w3.org/2000/svg">
  <rect width="1440" height="920" rx="44" fill="#F4EFE7"/>
  <rect x="56" y="56" width="1328" height="808" rx="34" fill="white" stroke="#DDD6CA"/>
  <rect x="102" y="102" width="358" height="716" rx="28" fill="#11151A"/>
  <circle cx="282" cy="212" r="74" fill="#1E3F3B"/>
  <circle cx="282" cy="212" r="56" fill="#2AD1C1" fill-opacity="0.28"/>
  <rect x="178" y="316" width="208" height="18" rx="9" fill="rgba(255,255,255,0.76)"/>
  <rect x="214" y="350" width="136" height="14" rx="7" fill="rgba(255,255,255,0.28)"/>
  <rect x="146" y="412" width="270" height="120" rx="28" fill="rgba(255,255,255,0.08)"/>
  <rect x="146" y="556" width="270" height="56" rx="22" fill="#2AD1C1"/>
  <rect x="146" y="632" width="270" height="56" rx="22" fill="rgba(255,255,255,0.08)"/>
  <rect x="510" y="102" width="828" height="216" rx="28" fill="#FBF8F4" stroke="#E5DED2"/>
  <rect x="554" y="148" width="180" height="18" rx="9" fill="#1B1F23" fill-opacity="0.72"/>
  <rect x="554" y="198" width="640" height="18" rx="9" fill="#1B1F23" fill-opacity="0.8"/>
  <rect x="554" y="232" width="560" height="16" rx="8" fill="#1B1F23" fill-opacity="0.34"/>
  <rect x="1082" y="142" width="204" height="112" rx="24" fill="#14B8A6" fill-opacity="0.12"/>
  <rect x="1122" y="178" width="128" height="18" rx="9" fill="#11151A" fill-opacity="0.72"/>
  <rect x="1122" y="212" width="96" height="14" rx="7" fill="#11151A" fill-opacity="0.26"/>
  <rect x="510" y="350" width="392" height="468" rx="28" fill="#FBF8F4" stroke="#E5DED2"/>
  <rect x="552" y="392" width="158" height="18" rx="9" fill="#1B1F23" fill-opacity="0.72"/>
  <rect x="552" y="450" width="308" height="76" rx="24" fill="#11151A" fill-opacity="0.05"/>
  <rect x="552" y="548" width="308" height="76" rx="24" fill="#11151A" fill-opacity="0.05"/>
  <rect x="552" y="646" width="308" height="76" rx="24" fill="#11151A" fill-opacity="0.05"/>
  <rect x="946" y="350" width="392" height="468" rx="28" fill="#FBF8F4" stroke="#E5DED2"/>
  <rect x="988" y="392" width="176" height="18" rx="9" fill="#1B1F23" fill-opacity="0.72"/>
  <circle cx="1030" cy="474" r="20" fill="#14B8A6" fill-opacity="0.18"/>
  <rect x="1068" y="466" width="188" height="14" rx="7" fill="#1B1F23" fill-opacity="0.68"/>
  <circle cx="1030" cy="554" r="20" fill="#F59E0B" fill-opacity="0.18"/>
  <rect x="1068" y="546" width="202" height="14" rx="7" fill="#1B1F23" fill-opacity="0.48"/>
  <circle cx="1030" cy="634" r="20" fill="#14B8A6" fill-opacity="0.18"/>
  <rect x="1068" y="626" width="176" height="14" rx="7" fill="#1B1F23" fill-opacity="0.38"/>
</svg>
